<?xml version="1.0" standalone="no"?>
<!DOCTYPE svg PUBLIC "-//W3C//DTD SVG 20010904//EN"
 "http://www.w3.org/TR/2001/REC-SVG-20010904/DTD/svg10.dtd">
<svg version="1.0" xmlns="http://www.w3.org/2000/svg"
 width="512.000000pt" height="512.000000pt" viewBox="0 0 512.000000 512.000000"
 preserveAspectRatio="xMidYMid meet">

<g transform="translate(0.000000,512.000000) scale(0.100000,-0.100000)"
fill="#000000" stroke="none">
<path d="M2070 5106 c-148 -34 -319 -112 -485 -221 l-90 -58 70 -14 c135 -28
272 -123 338 -236 31 -53 34 -82 10 -96 -24 -13 -49 2 -69 41 -24 46 -110 134
-158 161 -77 45 -140 60 -235 55 -113 -6 -183 -38 -266 -122 -121 -124 -172
-307 -132 -481 l12 -50 50 -8 c206 -34 313 -84 429 -201 93 -93 146 -177 182
-291 33 -102 44 -235 21 -254 -21 -17 -56 -5 -61 22 -3 12 -7 49 -10 82 -22
248 -206 469 -451 541 -92 27 -229 23 -330 -10 -198 -64 -358 -237 -412 -446
-21 -85 -21 -236 1 -319 l16 -64 -50 -61 c-333 -402 -81 -1013 433 -1049 62
-5 94 -24 84 -51 -10 -27 -48 -34 -131 -25 -143 16 -271 74 -382 173 -52 46
-56 48 -69 30 -21 -29 -62 -143 -76 -213 -27 -138 9 -324 87 -453 46 -75 139
-167 215 -214 l61 -36 -9 -62 c-11 -85 -9 -201 6 -266 48 -209 224 -397 431
-461 52 -16 57 -21 99 -89 162 -266 444 -402 721 -346 270 55 473 253 567 551
l28 90 3 1554 2 1553 -23 52 c-55 119 -137 174 -276 184 -84 7 -86 8 -89 34
-5 39 26 51 117 46 91 -5 164 -37 229 -101 l42 -41 0 472 0 473 -26 50 c-36
72 -96 133 -157 160 -63 27 -185 34 -267 15z m-1162 -1608 c7 -7 12 -29 12
-50 0 -125 70 -279 174 -383 126 -126 271 -181 456 -173 164 8 312 72 419 182
36 38 59 44 79 24 22 -22 13 -43 -40 -95 -96 -93 -219 -156 -354 -183 l-61
-12 -12 -48 c-36 -141 -141 -281 -258 -343 -56 -30 -188 -67 -238 -67 -42 0
-62 22 -48 53 9 18 24 24 89 35 104 16 192 59 258 124 53 53 107 150 121 216
7 32 6 32 -32 32 -69 0 -174 29 -261 71 -70 34 -102 58 -172 128 -98 99 -149
186 -180 307 -20 76 -26 174 -13 187 11 11 48 8 61 -5z m1312 -1353 c15 -18
10 -45 -10 -55 -8 -5 -50 -16 -92 -25 -94 -20 -221 -80 -297 -140 -141 -111
-235 -302 -243 -495 l-3 -71 74 -30 c162 -65 272 -163 342 -304 64 -129 90
-322 47 -349 -34 -21 -52 4 -59 81 -10 105 -25 166 -61 240 -61 126 -204 239
-352 277 -31 8 -60 17 -64 20 -4 2 -46 10 -92 16 -47 6 -91 16 -97 22 -33 27
3 71 50 64 18 -3 53 -8 78 -11 l46 -6 12 90 c25 194 92 341 212 461 96 96 233
174 373 210 87 23 120 24 136 5z"/>
<path d="M2825 5106 c-92 -29 -152 -82 -200 -175 l-25 -50 0 -473 0 -472 43
41 c59 59 144 95 232 101 87 5 118 -7 113 -46 -3 -26 -5 -27 -89 -34 -139 -10
-221 -65 -276 -184 l-23 -52 2 -1553 c4 -1751 -4 -1591 83 -1774 79 -170 195
-290 350 -365 322 -156 688 -36 886 290 42 68 47 73 99 89 254 79 438 320 443
581 1 47 -2 113 -6 146 l-9 62 61 36 c76 47 169 139 215 214 87 144 117 333
78 490 -17 66 -60 174 -77 190 -2 2 -36 -24 -77 -58 -121 -102 -263 -158 -413
-162 -48 -1 -69 2 -76 13 -25 39 -2 59 72 65 97 7 157 23 234 60 160 76 275
215 331 399 29 92 26 278 -4 370 -24 72 -89 192 -117 215 -9 7 -25 26 -36 41
-19 27 -19 30 -3 91 22 84 22 234 0 318 -25 98 -81 202 -147 273 -292 319
-786 248 -983 -141 -33 -66 -66 -190 -66 -249 0 -71 -33 -106 -68 -71 -18 18
-14 115 8 204 33 133 92 236 190 335 121 122 226 172 435 206 l50 8 12 50 c40
174 -11 358 -132 480 -84 85 -155 117 -266 123 -95 5 -158 -10 -235 -55 -48
-27 -134 -115 -158 -161 -20 -39 -45 -54 -69 -41 -25 15 -21 49 14 103 71 113
207 206 337 230 l67 13 -85 55 c-287 187 -561 273 -715 224z m1453 -1647 c2
-25 -4 -79 -12 -119 -58 -275 -310 -501 -588 -527 l-69 -6 7 -31 c13 -64 68
-161 120 -214 66 -65 154 -108 258 -124 85 -14 106 -31 86 -68 -14 -26 -54
-26 -154 0 -104 26 -169 63 -243 136 -66 65 -120 160 -144 254 l-12 48 -61 12
c-135 27 -258 90 -353 183 -54 52 -63 73 -41 95 21 21 43 13 83 -28 106 -108
251 -171 415 -178 185 -8 330 47 455 173 103 102 175 259 175 380 0 48 15 67
50 63 22 -3 25 -8 28 -49z m-1259 -1315 c343 -86 558 -327 601 -671 6 -48 12
-89 14 -90 1 -2 35 1 75 6 83 11 98 8 107 -21 10 -32 -14 -46 -101 -57 -247
-34 -431 -146 -512 -314 -38 -77 -52 -133 -62 -236 -7 -81 -24 -106 -58 -85
-24 15 -28 70 -13 164 37 232 172 397 401 489 l74 30 -3 71 c-8 190 -97 373
-239 491 -69 57 -207 124 -299 144 -44 9 -86 20 -94 25 -35 17 -17 70 23 70
11 0 50 -7 86 -16z"/>
</g>
</svg>
